# MagicaVoxel @ Ephtracy

# group
o 

# material
mtllib skin_4.mtl
usemtl palette

# normals
vn 1 0 0
vn -1 0 0
vn 0 0 -1
vn 0 0 1
vn 0 -1 0
vn 0 1 0

# texcoords
vt 0.943359 0.5
vt 0.970703 0.5
vt 0.978516 0.5
vt 0.982422 0.5
vt 0.986328 0.5
vt 0.990234 0.5
vt 0.994141 0.5

# verts
v 0.9 -0.9 -0.8
v 0.9 -0.9 0.8
v 0.9 0 -0.8
v 0.9 0 0.8
v 0.9 0.1 -0.8
v 0.9 0.1 0.8
v 0.9 0.6 -0.8
v 0.9 0.6 0.8
v 0.9 0.9 -0.8
v 0.9 0.9 0.8
v 0.3 -0.9 -0.9
v 0.3 -0.9 -0.8
v 0.3 -0.9 0.8
v 0.3 -0.9 0.9
v 0.3 -0.2 -0.9
v 0.3 -0.2 -0.8
v 0.3 -0.2 0.8
v 0.3 -0.2 0.9
v 0.2 -0.2 -0.9
v 0.2 -0.2 -0.8
v 0.2 -0.2 0.8
v 0.2 -0.2 0.9
v 0.2 0 -0.8
v 0.2 0 0.8
v 0.2 0.1 -0.8
v 0.2 0.1 0.8
v 0.2 0.2 -0.9
v 0.2 0.2 -0.8
v 0.2 0.2 0.8
v 0.2 0.2 0.9
v -0.3 -0.9 -0.9
v -0.3 -0.9 -0.8
v -0.3 -0.9 0.8
v -0.3 -0.9 0.9
v -0.3 0 -0.8
v -0.3 0 0.8
v -0.3 0.1 -0.8
v -0.3 0.1 0.8
v -0.3 0.2 -0.9
v -0.3 0.2 -0.8
v -0.3 0.2 0.8
v -0.3 0.2 0.9
v -0.6 -0.9 -0.8
v -0.6 -0.9 -0.7
v -0.6 -0.9 -0.3
v -0.6 -0.9 0.3
v -0.6 -0.9 0.7
v -0.6 -0.9 0.8
v -0.6 -0.7 -0.7
v -0.6 -0.7 -0.3
v -0.6 -0.7 0.3
v -0.6 -0.7 0.7
v -0.6 0 -0.8
v -0.6 0 -0.7
v -0.6 0 -0.6
v -0.6 0 -0.5
v -0.6 0 0.5
v -0.6 0 0.6
v -0.6 0 0.7
v -0.6 0 0.8
v -0.6 0.1 -0.8
v -0.6 0.1 -0.7
v -0.6 0.1 -0.6
v -0.6 0.1 -0.5
v -0.6 0.1 -0.3
v -0.6 0.1 -0.2
v -0.6 0.1 0.2
v -0.6 0.1 0.3
v -0.6 0.1 0.5
v -0.6 0.1 0.6
v -0.6 0.1 0.7
v -0.6 0.1 0.8
v -0.6 0.2 -0.6
v -0.6 0.2 -0.4
v -0.6 0.2 0.4
v -0.6 0.2 0.6
v -0.6 0.3 -0.2
v -0.6 0.3 0.2
v -0.6 0.4 -0.6
v -0.6 0.4 -0.4
v -0.6 0.4 0.4
v -0.6 0.4 0.6
v -0.6 0.5 -0.7
v -0.6 0.5 -0.3
v -0.6 0.5 0.3
v -0.6 0.5 0.7
v -0.6 0.6 -0.8
v -0.6 0.6 -0.2
v -0.6 0.6 0.2
v -0.6 0.6 0.8
v -0.6 0.9 -0.8
v -0.6 0.9 0.8
v -0.8 0.1 -0.2
v -0.8 0.1 0.2
v -0.8 0.3 -0.2
v -0.8 0.3 0.2
v -0.9 -0.9 -0.7
v -0.9 -0.9 -0.3
v -0.9 -0.9 0.3
v -0.9 -0.9 0.7
v -0.9 -0.7 -0.7
v -0.9 -0.7 -0.3
v -0.9 -0.7 0.3
v -0.9 -0.7 0.7
v 0.3 -0.9 -0.9
v 0.3 -0.2 -0.9
v 0.2 -0.2 -0.9
v 0.2 0.2 -0.9
v -0.3 -0.9 -0.9
v -0.3 0.2 -0.9
v 0.9 -0.9 -0.8
v 0.9 0 -0.8
v 0.9 0.1 -0.8
v 0.9 0.6 -0.8
v 0.9 0.9 -0.8
v 0.8 0.6 -0.8
v 0.8 0.8 -0.8
v 0.3 -0.9 -0.8
v 0.3 -0.2 -0.8
v 0.2 -0.2 -0.8
v 0.2 0 -0.8
v 0.2 0.1 -0.8
v 0.2 0.2 -0.8
v -0.3 -0.9 -0.8
v -0.3 0 -0.8
v -0.3 0.1 -0.8
v -0.3 0.2 -0.8
v -0.5 0.6 -0.8
v -0.5 0.8 -0.8
v -0.6 -0.9 -0.8
v -0.6 0 -0.8
v -0.6 0.1 -0.8
v -0.6 0.6 -0.8
v -0.6 0.9 -0.8
v -0.6 -0.9 -0.7
v -0.6 -0.7 -0.7
v -0.9 -0.9 -0.7
v -0.9 -0.7 -0.7
v -0.6 0.1 -0.2
v -0.6 0.3 -0.2
v -0.8 0.1 -0.2
v -0.8 0.3 -0.2
v -0.6 -0.9 0.3
v -0.6 -0.7 0.3
v -0.9 -0.9 0.3
v -0.9 -0.7 0.3
v -0.6 -0.9 -0.3
v -0.6 -0.7 -0.3
v -0.9 -0.9 -0.3
v -0.9 -0.7 -0.3
v -0.6 0.1 0.2
v -0.6 0.3 0.2
v -0.8 0.1 0.2
v -0.8 0.3 0.2
v -0.6 -0.9 0.7
v -0.6 -0.7 0.7
v -0.9 -0.9 0.7
v -0.9 -0.7 0.7
v 0.9 -0.9 0.8
v 0.9 0 0.8
v 0.9 0.1 0.8
v 0.9 0.6 0.8
v 0.9 0.9 0.8
v 0.8 0.6 0.8
v 0.8 0.8 0.8
v 0.3 -0.9 0.8
v 0.3 -0.2 0.8
v 0.2 -0.2 0.8
v 0.2 0 0.8
v 0.2 0.1 0.8
v 0.2 0.2 0.8
v -0.3 -0.9 0.8
v -0.3 0 0.8
v -0.3 0.1 0.8
v -0.3 0.2 0.8
v -0.5 0.6 0.8
v -0.5 0.8 0.8
v -0.6 -0.9 0.8
v -0.6 0 0.8
v -0.6 0.1 0.8
v -0.6 0.6 0.8
v -0.6 0.9 0.8
v 0.3 -0.9 0.9
v 0.3 -0.2 0.9
v 0.2 -0.2 0.9
v 0.2 0.2 0.9
v -0.3 -0.9 0.9
v -0.3 0.2 0.9
v 0.3 -0.9 -0.9
v -0.3 -0.9 -0.9
v 0.9 -0.9 -0.8
v 0.3 -0.9 -0.8
v -0.3 -0.9 -0.8
v -0.6 -0.9 -0.8
v -0.6 -0.9 -0.7
v -0.9 -0.9 -0.7
v -0.6 -0.9 -0.3
v -0.9 -0.9 -0.3
v -0.6 -0.9 0.3
v -0.9 -0.9 0.3
v -0.6 -0.9 0.7
v -0.9 -0.9 0.7
v 0.9 -0.9 0.8
v 0.3 -0.9 0.8
v -0.3 -0.9 0.8
v -0.6 -0.9 0.8
v 0.3 -0.9 0.9
v -0.3 -0.9 0.9
v -0.6 0.1 -0.2
v -0.8 0.1 -0.2
v -0.6 0.1 0.2
v -0.8 0.1 0.2
v -0.6 -0.7 -0.7
v -0.9 -0.7 -0.7
v -0.6 -0.7 -0.3
v -0.9 -0.7 -0.3
v -0.6 -0.7 0.3
v -0.9 -0.7 0.3
v -0.6 -0.7 0.7
v -0.9 -0.7 0.7
v 0.3 -0.2 -0.9
v 0.2 -0.2 -0.9
v 0.3 -0.2 -0.8
v 0.2 -0.2 -0.8
v 0.3 -0.2 0.8
v 0.2 -0.2 0.8
v 0.3 -0.2 0.9
v 0.2 -0.2 0.9
v 0.2 0.2 -0.9
v -0.3 0.2 -0.9
v 0.2 0.2 -0.8
v -0.3 0.2 -0.8
v 0.2 0.2 0.8
v -0.3 0.2 0.8
v 0.2 0.2 0.9
v -0.3 0.2 0.9
v -0.6 0.3 -0.2
v -0.8 0.3 -0.2
v -0.6 0.3 0.2
v -0.8 0.3 0.2
v 0.9 0.9 -0.8
v -0.6 0.9 -0.8
v 0.9 0.9 0.8
v -0.6 0.9 0.8

# faces
f 3/7/1 2/7/1 1/7/1
f 4/7/1 2/7/1 3/7/1
f 5/4/1 4/4/1 3/4/1
f 6/4/1 4/4/1 5/4/1
f 7/2/1 6/2/1 5/2/1
f 8/2/1 6/2/1 7/2/1
f 9/3/1 8/3/1 7/3/1
f 10/3/1 8/3/1 9/3/1
f 15/3/1 12/3/1 11/3/1
f 16/3/1 12/3/1 15/3/1
f 17/3/1 14/3/1 13/3/1
f 18/3/1 14/3/1 17/3/1
f 23/3/1 20/3/1 19/3/1
f 24/3/1 22/3/1 21/3/1
f 25/3/1 23/3/1 19/3/1
f 26/3/1 22/3/1 24/3/1
f 27/3/1 25/3/1 19/3/1
f 28/3/1 25/3/1 27/3/1
f 29/3/1 22/3/1 26/3/1
f 30/3/1 22/3/1 29/3/1
f 31/3/2 32/3/2 35/3/2
f 33/3/2 34/3/2 36/3/2
f 31/3/2 35/3/2 37/3/2
f 36/3/2 34/3/2 38/3/2
f 31/3/2 37/3/2 39/3/2
f 39/3/2 37/3/2 40/3/2
f 38/3/2 34/3/2 41/3/2
f 41/3/2 34/3/2 42/3/2
f 43/7/2 44/7/2 49/7/2
f 45/7/2 46/7/2 50/7/2
f 50/7/2 46/7/2 51/7/2
f 47/7/2 48/7/2 52/7/2
f 50/7/2 51/7/2 53/7/2
f 51/7/2 52/7/2 53/7/2
f 43/7/2 49/7/2 53/7/2
f 49/7/2 50/7/2 53/7/2
f 53/7/2 52/7/2 54/7/2
f 54/7/2 52/7/2 55/7/2
f 55/7/2 52/7/2 56/7/2
f 56/7/2 52/7/2 57/7/2
f 57/7/2 52/7/2 58/7/2
f 52/7/2 48/7/2 59/7/2
f 58/7/2 52/7/2 59/7/2
f 59/7/2 48/7/2 60/7/2
f 53/4/2 54/4/2 61/4/2
f 54/7/2 55/7/2 62/7/2
f 61/4/2 54/4/2 62/4/2
f 55/4/2 56/4/2 63/4/2
f 62/7/2 55/7/2 63/7/2
f 56/7/2 57/7/2 64/7/2
f 63/4/2 56/4/2 64/4/2
f 64/7/2 57/7/2 65/7/2
f 65/7/2 57/7/2 66/7/2
f 66/7/2 57/7/2 67/7/2
f 67/7/2 57/7/2 68/7/2
f 57/4/2 58/4/2 69/4/2
f 68/7/2 57/7/2 69/7/2
f 58/7/2 59/7/2 70/7/2
f 69/4/2 58/4/2 70/4/2
f 59/4/2 60/4/2 71/4/2
f 70/7/2 59/7/2 71/7/2
f 71/4/2 60/4/2 72/4/2
f 62/5/2 63/5/2 73/5/2
f 63/5/2 64/5/2 73/5/2
f 64/5/2 65/5/2 73/5/2
f 73/5/2 65/5/2 74/5/2
f 68/5/2 69/5/2 75/5/2
f 69/5/2 70/5/2 75/5/2
f 70/5/2 71/5/2 75/5/2
f 75/5/2 71/5/2 76/5/2
f 65/2/2 66/2/2 77/2/2
f 67/2/2 68/2/2 78/2/2
f 73/6/2 74/6/2 79/6/2
f 62/5/2 73/5/2 79/5/2
f 74/5/2 65/5/2 80/5/2
f 79/6/2 74/6/2 80/6/2
f 68/5/2 75/5/2 81/5/2
f 75/6/2 76/6/2 81/6/2
f 76/5/2 71/5/2 82/5/2
f 81/6/2 76/6/2 82/6/2
f 61/2/2 62/2/2 83/2/2
f 62/5/2 79/5/2 83/5/2
f 79/5/2 80/5/2 83/5/2
f 65/2/2 77/2/2 84/2/2
f 83/5/2 80/5/2 84/5/2
f 80/5/2 65/5/2 84/5/2
f 81/5/2 82/5/2 85/5/2
f 78/2/2 68/2/2 85/2/2
f 68/5/2 81/5/2 85/5/2
f 82/5/2 71/5/2 86/5/2
f 85/5/2 82/5/2 86/5/2
f 71/2/2 72/2/2 86/2/2
f 61/2/2 83/2/2 87/2/2
f 83/2/2 84/2/2 87/2/2
f 84/2/2 77/2/2 88/2/2
f 87/2/2 84/2/2 88/2/2
f 77/3/2 78/3/2 88/3/2
f 78/2/2 85/2/2 89/2/2
f 88/3/2 78/3/2 89/3/2
f 85/2/2 86/2/2 89/2/2
f 86/2/2 72/2/2 90/2/2
f 89/2/2 86/2/2 90/2/2
f 88/3/2 89/3/2 91/3/2
f 87/3/2 88/3/2 91/3/2
f 89/3/2 90/3/2 91/3/2
f 91/3/2 90/3/2 92/3/2
f 93/4/2 94/4/2 95/4/2
f 95/4/2 94/4/2 96/4/2
f 97/1/2 98/1/2 101/1/2
f 101/1/2 98/1/2 102/1/2
f 99/1/2 100/1/2 103/1/2
f 103/1/2 100/1/2 104/1/2
f 107/3/3 106/3/3 105/3/3
f 109/3/3 107/3/3 105/3/3
f 109/3/3 108/3/3 107/3/3
f 110/3/3 108/3/3 109/3/3
f 116/2/3 114/2/3 113/2/3
f 116/3/3 115/3/3 114/3/3
f 117/3/3 115/3/3 116/3/3
f 118/7/3 112/7/3 111/7/3
f 119/7/3 112/7/3 118/7/3
f 120/7/3 112/7/3 119/7/3
f 121/4/3 113/4/3 112/4/3
f 121/7/3 112/7/3 120/7/3
f 122/2/3 116/2/3 113/2/3
f 122/4/3 113/4/3 121/4/3
f 122/2/3 117/2/3 116/2/3
f 123/2/3 117/2/3 122/2/3
f 127/2/3 117/2/3 123/2/3
f 128/2/3 117/2/3 127/2/3
f 128/2/3 127/2/3 126/2/3
f 129/3/3 115/3/3 117/3/3
f 129/2/3 117/2/3 128/2/3
f 130/7/3 125/7/3 124/7/3
f 131/4/3 126/4/3 125/4/3
f 131/7/3 125/7/3 130/7/3
f 132/2/3 128/2/3 126/2/3
f 132/4/3 126/4/3 131/4/3
f 133/3/3 129/3/3 128/3/3
f 133/2/3 128/2/3 132/2/3
f 134/3/3 115/3/3 129/3/3
f 134/3/3 129/3/3 133/3/3
f 137/1/3 136/1/3 135/1/3
f 138/1/3 136/1/3 137/1/3
f 141/4/3 140/4/3 139/4/3
f 142/4/3 140/4/3 141/4/3
f 145/1/3 144/1/3 143/1/3
f 146/1/3 144/1/3 145/1/3
f 147/1/4 148/1/4 149/1/4
f 149/1/4 148/1/4 150/1/4
f 151/4/4 152/4/4 153/4/4
f 153/4/4 152/4/4 154/4/4
f 155/1/4 156/1/4 157/1/4
f 157/1/4 156/1/4 158/1/4
f 161/2/4 162/2/4 164/2/4
f 162/3/4 163/3/4 164/3/4
f 164/3/4 163/3/4 165/3/4
f 159/7/4 160/7/4 166/7/4
f 166/7/4 160/7/4 167/7/4
f 167/7/4 160/7/4 168/7/4
f 160/4/4 161/4/4 169/4/4
f 168/7/4 160/7/4 169/7/4
f 161/2/4 164/2/4 170/2/4
f 169/4/4 161/4/4 170/4/4
f 164/2/4 165/2/4 170/2/4
f 170/2/4 165/2/4 171/2/4
f 171/2/4 165/2/4 175/2/4
f 175/2/4 165/2/4 176/2/4
f 174/2/4 175/2/4 176/2/4
f 165/3/4 163/3/4 177/3/4
f 176/2/4 165/2/4 177/2/4
f 172/7/4 173/7/4 178/7/4
f 173/4/4 174/4/4 179/4/4
f 178/7/4 173/7/4 179/7/4
f 174/2/4 176/2/4 180/2/4
f 179/4/4 174/4/4 180/4/4
f 176/3/4 177/3/4 181/3/4
f 180/2/4 176/2/4 181/2/4
f 177/3/4 163/3/4 182/3/4
f 181/3/4 177/3/4 182/3/4
f 183/3/4 184/3/4 185/3/4
f 183/3/4 185/3/4 187/3/4
f 185/3/4 186/3/4 187/3/4
f 187/3/4 186/3/4 188/3/4
f 192/3/5 190/3/5 189/3/5
f 193/3/5 190/3/5 192/3/5
f 195/7/5 192/7/5 191/7/5
f 195/7/5 194/7/5 193/7/5
f 195/7/5 193/7/5 192/7/5
f 197/7/5 195/7/5 191/7/5
f 197/1/5 196/1/5 195/1/5
f 198/1/5 196/1/5 197/1/5
f 199/7/5 197/7/5 191/7/5
f 201/7/5 199/7/5 191/7/5
f 201/1/5 200/1/5 199/1/5
f 202/1/5 200/1/5 201/1/5
f 203/7/5 201/7/5 191/7/5
f 204/7/5 201/7/5 203/7/5
f 205/7/5 201/7/5 204/7/5
f 206/7/5 201/7/5 205/7/5
f 207/3/5 205/3/5 204/3/5
f 208/3/5 205/3/5 207/3/5
f 211/4/5 210/4/5 209/4/5
f 212/4/5 210/4/5 211/4/5
f 213/1/6 214/1/6 215/1/6
f 215/1/6 214/1/6 216/1/6
f 217/1/6 218/1/6 219/1/6
f 219/1/6 218/1/6 220/1/6
f 221/3/6 222/3/6 223/3/6
f 223/3/6 222/3/6 224/3/6
f 225/3/6 226/3/6 227/3/6
f 227/3/6 226/3/6 228/3/6
f 229/3/6 230/3/6 231/3/6
f 231/3/6 230/3/6 232/3/6
f 233/3/6 234/3/6 235/3/6
f 235/3/6 234/3/6 236/3/6
f 237/4/6 238/4/6 239/4/6
f 239/4/6 238/4/6 240/4/6
f 241/3/6 242/3/6 243/3/6
f 243/3/6 242/3/6 244/3/6
